<?xml version="1.0" encoding="utf-8"?>
<!-- Generator: Adobe Illustrator 16.0.0, SVG Export Plug-In . SVG Version: 6.00 Build 0)  -->
<!DOCTYPE svg PUBLIC "-//W3C//DTD SVG 1.1//EN" "http://www.w3.org/Graphics/SVG/1.1/DTD/svg11.dtd">
<svg version="1.1" id="Layer_1" xmlns="http://www.w3.org/2000/svg" xmlns:xlink="http://www.w3.org/1999/xlink" x="0px" y="0px"
	 width="266.619px" height="9.848px" viewBox="0 0 266.619 9.848" enable-background="new 0 0 266.619 9.848" xml:space="preserve">
<g>
	<g>
		<g>
			<path fill="#FFFFFF" d="M5.266,9.74L3.692,6.49H2.616v3.25H0V0.103h4.31c0.559,0,1.071,0.058,1.535,0.171
				c0.463,0.116,0.86,0.297,1.19,0.545C7.366,1.066,7.62,1.39,7.798,1.789c0.179,0.4,0.269,0.885,0.269,1.454
				c0,0.724-0.157,1.317-0.469,1.776c-0.313,0.458-0.735,0.808-1.27,1.046L8.26,9.74H5.266z M5.14,2.568
				C4.961,2.375,4.658,2.279,4.235,2.279H2.616v2.106h1.577c0.443,0,0.756-0.092,0.941-0.275C5.317,3.926,5.41,3.66,5.41,3.311
				C5.41,3.007,5.32,2.76,5.14,2.568z"/>
		</g>
		<g>
			<path fill="#FFFFFF" d="M9.856,9.74V0.103h7.378v2.244h-4.736v1.295h2.85v2.201h-2.85v1.651h4.833V9.74H9.856z"/>
		</g>
		<g>
			<path fill="#FFFFFF" d="M27.036,7.158c-0.22,0.62-0.551,1.122-0.991,1.501c-0.44,0.38-0.983,0.656-1.631,0.824
				c-0.647,0.172-1.397,0.258-2.251,0.258h-3.125V0.103h3.373c0.752,0,1.436,0.078,2.051,0.234s1.135,0.419,1.562,0.791
				c0.426,0.372,0.757,0.86,0.991,1.467c0.234,0.605,0.351,1.361,0.351,2.27C27.366,5.775,27.255,6.539,27.036,7.158z M24.51,3.764
				c-0.078-0.32-0.205-0.582-0.379-0.784c-0.175-0.201-0.403-0.352-0.688-0.447c-0.284-0.097-0.632-0.146-1.046-0.146h-0.66v5.067
				h0.578c0.414,0,0.766-0.044,1.06-0.132c0.293-0.087,0.535-0.229,0.723-0.427c0.188-0.197,0.324-0.457,0.405-0.784
				c0.083-0.325,0.125-0.727,0.125-1.205C24.627,4.467,24.588,4.086,24.51,3.764z"/>
		</g>
		<g>
			<path fill="#FFFFFF" d="M38.695,9.74V5.939h-3.001V9.74h-2.726V0.103h2.726v3.51h3.001v-3.51h2.725V9.74H38.695z"/>
		</g>
		<g>
			<path fill="#FFFFFF" d="M49.598,9.74l-0.523-1.695h-2.893L45.66,9.74h-2.863l3.496-9.637h2.699l3.496,9.637H49.598z
				 M48.248,5.293c-0.083-0.312-0.156-0.583-0.22-0.812c-0.064-0.229-0.123-0.437-0.172-0.62c-0.05-0.185-0.094-0.351-0.131-0.503
				c-0.036-0.151-0.069-0.31-0.097-0.475c-0.026,0.165-0.06,0.325-0.096,0.481c-0.037,0.155-0.081,0.326-0.13,0.509
				c-0.05,0.184-0.108,0.389-0.172,0.619c-0.063,0.231-0.139,0.497-0.22,0.799l-0.18,0.633h1.597L48.248,5.293z"/>
		</g>
		<g>
			<path fill="#FFFFFF" d="M57.525,2.43v7.31h-2.669V2.43h-2.699V0.103h8.067V2.43H57.525z"/>
		</g>
		<g>
			<path fill="#FFFFFF" d="M63.364,1.538c-0.049,0.118-0.117,0.22-0.203,0.307c-0.087,0.086-0.188,0.154-0.306,0.203
				c-0.118,0.049-0.245,0.073-0.383,0.073c-0.138,0-0.265-0.024-0.383-0.073c-0.117-0.049-0.22-0.117-0.307-0.203
				c-0.085-0.086-0.153-0.189-0.203-0.307c-0.049-0.118-0.073-0.245-0.073-0.383c0-0.137,0.024-0.264,0.073-0.382
				c0.049-0.118,0.117-0.22,0.203-0.307c0.087-0.086,0.189-0.154,0.307-0.203c0.118-0.049,0.245-0.075,0.383-0.075
				c0.138,0,0.266,0.026,0.383,0.075s0.219,0.117,0.306,0.203c0.086,0.086,0.154,0.189,0.203,0.307
				c0.049,0.118,0.074,0.245,0.074,0.382C63.438,1.292,63.413,1.42,63.364,1.538z M63.222,0.835
				c-0.041-0.099-0.098-0.185-0.171-0.258c-0.074-0.073-0.16-0.131-0.258-0.171c-0.099-0.041-0.206-0.062-0.32-0.062
				c-0.116,0-0.223,0.021-0.32,0.062c-0.1,0.041-0.185,0.098-0.258,0.171s-0.13,0.159-0.171,0.258
				c-0.042,0.099-0.062,0.206-0.062,0.319c0,0.117,0.02,0.223,0.062,0.322c0.041,0.098,0.098,0.184,0.171,0.257
				c0.073,0.073,0.158,0.13,0.258,0.171c0.098,0.041,0.205,0.061,0.32,0.061c0.114,0,0.221-0.02,0.32-0.061
				c0.098-0.041,0.185-0.098,0.258-0.171c0.073-0.073,0.13-0.16,0.171-0.257c0.041-0.099,0.062-0.205,0.062-0.322
				C63.284,1.041,63.262,0.934,63.222,0.835z M62.849,1.131c-0.041,0.051-0.095,0.088-0.164,0.107l0.217,0.425h-0.21l-0.205-0.408
				h-0.203v0.408h-0.18V0.609h0.462c0.046,0,0.09,0.006,0.132,0.018c0.042,0.013,0.078,0.032,0.109,0.058
				c0.032,0.027,0.056,0.059,0.074,0.1c0.019,0.04,0.028,0.088,0.028,0.143C62.91,1.011,62.89,1.079,62.849,1.131z M62.684,0.82
				c-0.032-0.024-0.072-0.037-0.12-0.037h-0.279v0.3h0.279c0.048,0,0.088-0.013,0.12-0.037c0.032-0.023,0.048-0.062,0.048-0.114
				C62.731,0.883,62.715,0.845,62.684,0.82z"/>
		</g>
	</g>
	<g>
		<path fill="#FFFFFF" d="M67.595,9.848V0.152h6.232v1.426h-4.793v2.369h2.785v1.428h-2.785v3.048h5v1.425H67.595z"/>
		<path fill="#FFFFFF" d="M82.097,9.848l-3.865-6.08c-0.119-0.185-0.252-0.398-0.395-0.638c-0.143-0.24-0.251-0.425-0.325-0.553
			c0,0.091,0,0.235,0,0.429c0,0.193,0.001,0.401,0.006,0.623c0.005,0.221,0.007,0.443,0.007,0.665c0,0.213,0,0.389,0,0.526v5.028
			h-1.412V0.152h1.482l3.684,5.914c0.063,0.103,0.136,0.218,0.214,0.347c0.078,0.13,0.155,0.261,0.229,0.395
			c0.073,0.135,0.143,0.256,0.208,0.367c0.063,0.111,0.114,0.197,0.152,0.264c0-0.094,0-0.235,0-0.428
			c0-0.205-0.003-0.419-0.007-0.645c-0.005-0.227-0.007-0.451-0.007-0.672c0-0.222,0-0.402,0-0.541v-5h1.413v9.695H82.097z"/>
		<path fill="#FFFFFF" d="M89.658,1.578v8.27h-1.44v-8.27h-2.825V0.152h7.092v1.426H89.658z"/>
		<path fill="#FFFFFF" d="M94.409,9.848V0.152h6.233v1.426H95.85v2.369h2.784v1.428H95.85v3.048h5v1.425H94.409z"/>
		<path fill="#FFFFFF" d="M109.729,4.931c-0.379,0.47-0.9,0.788-1.565,0.956l1.981,3.96h-1.672l-1.92-3.836h-2.184v3.836h-1.44
			V0.152h4.252c0.424,0,0.824,0.058,1.198,0.173c0.375,0.115,0.704,0.291,0.99,0.525c0.287,0.236,0.513,0.536,0.679,0.901
			c0.166,0.365,0.249,0.796,0.249,1.295C110.297,3.833,110.108,4.459,109.729,4.931z M108.379,1.925
			c-0.299-0.268-0.697-0.401-1.193-0.401h-2.817v3.116h2.817c0.488,0,0.883-0.126,1.187-0.381c0.303-0.254,0.456-0.644,0.456-1.17
			C108.829,2.582,108.679,2.193,108.379,1.925z"/>
		<path fill="#FFFFFF" d="M119.48,4.501c-0.156,0.378-0.378,0.697-0.663,0.956c-0.287,0.259-0.625,0.452-1.016,0.582
			c-0.391,0.129-0.823,0.193-1.292,0.193h-2.527v3.616h-1.442V0.152h4.06c0.442,0,0.856,0.064,1.239,0.193
			c0.382,0.129,0.713,0.32,0.989,0.574c0.277,0.255,0.495,0.571,0.652,0.949c0.157,0.378,0.235,0.817,0.235,1.316
			S119.637,4.122,119.48,4.501z M117.784,1.953c-0.298-0.286-0.7-0.429-1.207-0.429h-2.595v3.338h2.595
			c0.552,0,0.966-0.148,1.241-0.443c0.277-0.296,0.415-0.707,0.415-1.233C118.232,2.65,118.083,2.238,117.784,1.953z"/>
		<path fill="#FFFFFF" d="M128.387,4.931c-0.379,0.47-0.901,0.788-1.566,0.956l1.981,3.96h-1.672l-1.921-3.836h-2.183v3.836h-1.44
			V0.152h4.252c0.425,0,0.824,0.058,1.198,0.173c0.375,0.115,0.704,0.291,0.99,0.525c0.286,0.236,0.513,0.536,0.679,0.901
			c0.166,0.365,0.249,0.796,0.249,1.295C128.954,3.833,128.765,4.459,128.387,4.931z M127.037,1.925
			c-0.298-0.268-0.698-0.401-1.193-0.401h-2.818v3.116h2.818c0.487,0,0.883-0.126,1.187-0.381c0.303-0.254,0.455-0.644,0.455-1.17
			C127.485,2.582,127.336,2.193,127.037,1.925z"/>
		<path fill="#FFFFFF" d="M131.268,9.848V0.152h1.44v9.695H131.268z"/>
		<path fill="#FFFFFF" d="M141.593,8.254c-0.144,0.359-0.359,0.67-0.651,0.929c-0.291,0.258-0.663,0.459-1.114,0.602
			C139.374,9.928,138.838,10,138.22,10c-0.71,0-1.36-0.141-1.946-0.422c-0.586-0.281-1.087-0.663-1.502-1.142l1.039-1.013
			c0.323,0.351,0.708,0.632,1.156,0.838c0.447,0.208,0.903,0.313,1.364,0.313c1.34,0,2.009-0.473,2.009-1.414
			c0-0.184-0.038-0.352-0.111-0.499c-0.073-0.148-0.199-0.285-0.374-0.409c-0.174-0.125-0.402-0.242-0.678-0.353
			c-0.277-0.111-0.62-0.227-1.027-0.347c-0.516-0.147-0.963-0.299-1.343-0.456c-0.378-0.157-0.692-0.34-0.942-0.547
			c-0.25-0.208-0.436-0.459-0.561-0.755c-0.124-0.294-0.187-0.66-0.187-1.094c0-0.416,0.083-0.791,0.249-1.129
			c0.168-0.337,0.393-0.621,0.679-0.851c0.287-0.231,0.625-0.41,1.019-0.534C137.456,0.062,137.874,0,138.318,0
			c0.664,0,1.25,0.116,1.758,0.346c0.508,0.231,0.978,0.554,1.412,0.969l-1.024,1.04c-0.304-0.314-0.636-0.547-0.997-0.699
			c-0.361-0.152-0.781-0.229-1.26-0.229c-0.573,0-0.986,0.121-1.24,0.36c-0.253,0.24-0.38,0.522-0.38,0.845
			c0,0.166,0.032,0.317,0.097,0.45c0.064,0.133,0.176,0.259,0.333,0.374s0.373,0.228,0.65,0.339c0.278,0.111,0.624,0.226,1.04,0.347
			c0.479,0.147,0.912,0.301,1.294,0.458c0.385,0.157,0.709,0.347,0.978,0.567c0.267,0.223,0.472,0.485,0.616,0.79
			c0.144,0.304,0.215,0.674,0.215,1.107C141.808,7.497,141.736,7.895,141.593,8.254z"/>
		<path fill="#FFFFFF" d="M143.982,9.848V0.152h6.233v1.426h-4.792v2.369h2.784v1.428h-2.784v3.048h5v1.425H143.982z"/>
		<path fill="#FFFFFF" d="M160.533,9.848h-1.536l-3.366-9.695h1.58l2.022,6.177c0.047,0.138,0.096,0.294,0.151,0.464
			c0.055,0.17,0.107,0.34,0.16,0.506c0.05,0.167,0.098,0.321,0.139,0.464c0.042,0.143,0.072,0.256,0.09,0.339
			c0.017-0.083,0.047-0.196,0.089-0.339c0.043-0.143,0.087-0.297,0.138-0.464c0.052-0.166,0.106-0.337,0.161-0.514
			c0.055-0.174,0.106-0.331,0.153-0.469l1.995-6.165h1.549L160.533,9.848z"/>
		<path fill="#FFFFFF" d="M165.839,9.848V0.152h1.44v9.695H165.839z"/>
		<path fill="#FFFFFF" d="M176.684,4.931c-0.378,0.47-0.899,0.788-1.566,0.956l1.981,3.96h-1.671l-1.921-3.836h-2.183v3.836h-1.441
			V0.152h4.252c0.425,0,0.825,0.058,1.2,0.173c0.373,0.115,0.703,0.291,0.988,0.525c0.287,0.236,0.513,0.536,0.68,0.901
			c0.166,0.365,0.249,0.796,0.249,1.295C177.251,3.833,177.063,4.459,176.684,4.931z M175.336,1.925
			c-0.3-0.268-0.698-0.401-1.196-0.401h-2.817v3.116h2.817c0.488,0,0.884-0.126,1.189-0.381c0.303-0.254,0.456-0.644,0.456-1.17
			C175.785,2.582,175.634,2.193,175.336,1.925z"/>
		<path fill="#FFFFFF" d="M182.834,1.578v8.27h-1.44v-8.27h-2.826V0.152h7.091v1.426H182.834z"/>
		<path fill="#FFFFFF" d="M193.916,8.926C193.281,9.643,192.358,10,191.151,10c-1.199,0-2.103-0.367-2.715-1.108
			c-0.614-0.738-0.919-1.777-0.919-3.116V0.152h1.438v5.582c0,0.924,0.188,1.622,0.563,2.099c0.374,0.477,0.928,0.714,1.66,0.714
			c0.769,0,1.335-0.228,1.702-0.686s0.547-1.134,0.547-2.03V0.152h1.443v5.65C194.871,7.17,194.551,8.211,193.916,8.926z"/>
		<path fill="#FFFFFF" d="M203.388,9.848l-0.816-2.299h-3.878l-0.804,2.299h-1.51l3.491-9.695h1.536l3.533,9.695H203.388z
			 M201.353,4.016c-0.056-0.174-0.119-0.368-0.195-0.582c-0.073-0.211-0.144-0.424-0.212-0.637
			c-0.071-0.213-0.135-0.409-0.196-0.589c-0.059-0.179-0.104-0.32-0.131-0.422c-0.028,0.102-0.069,0.243-0.125,0.422
			c-0.055,0.18-0.115,0.375-0.18,0.583c-0.065,0.208-0.131,0.422-0.201,0.643c-0.068,0.223-0.136,0.422-0.201,0.597l-0.775,2.217
			h2.992L201.353,4.016z"/>
		<path fill="#FFFFFF" d="M206.851,9.848V0.152h1.44v8.27h4.834v1.425H206.851z"/>
		<path fill="#FFFFFF" d="M215.162,9.848V0.152h1.44v9.695H215.162z"/>
		<path fill="#FFFFFF" d="M218.778,9.848V8.433l4.736-5.73c0.074-0.092,0.161-0.199,0.263-0.319c0.101-0.12,0.204-0.239,0.304-0.354
			c0.102-0.116,0.198-0.224,0.291-0.326c0.093-0.102,0.171-0.185,0.235-0.25c-0.101,0-0.233,0.002-0.395,0.006
			c-0.161,0.005-0.335,0.01-0.519,0.015c-0.185,0.004-0.37,0.007-0.554,0.007c-0.185,0-0.346,0-0.484,0h-3.6v-1.33h7.091v1.415
			l-4.681,5.729c-0.075,0.093-0.163,0.2-0.264,0.321c-0.103,0.119-0.202,0.238-0.305,0.352c-0.102,0.117-0.199,0.225-0.291,0.328
			c-0.092,0.101-0.171,0.184-0.235,0.249c0.092,0,0.222-0.003,0.387-0.007c0.167-0.006,0.341-0.01,0.526-0.016
			c0.185-0.003,0.37-0.007,0.556-0.007c0.183,0,0.346,0,0.484,0h3.823v1.331H218.778z"/>
		<path fill="#FFFFFF" d="M234.664,9.848l-0.818-2.299h-3.876l-0.806,2.299h-1.508l3.49-9.695h1.537l3.534,9.695H234.664z
			 M232.626,4.016c-0.054-0.174-0.119-0.368-0.191-0.582c-0.074-0.211-0.146-0.424-0.216-0.637
			c-0.068-0.213-0.135-0.409-0.194-0.589c-0.059-0.179-0.104-0.32-0.131-0.422c-0.027,0.102-0.069,0.243-0.125,0.422
			c-0.055,0.18-0.115,0.375-0.18,0.583c-0.065,0.208-0.131,0.422-0.201,0.643c-0.07,0.223-0.137,0.422-0.199,0.597l-0.776,2.217
			h2.992L232.626,4.016z"/>
		<path fill="#FFFFFF" d="M240.537,1.578v8.27h-1.441v-8.27h-2.824V0.152h7.092v1.426H240.537z"/>
		<path fill="#FFFFFF" d="M245.357,9.848V0.152h1.439v9.695H245.357z"/>
		<path fill="#FFFFFF" d="M256.896,7.043c-0.203,0.613-0.486,1.141-0.854,1.578c-0.365,0.439-0.801,0.779-1.309,1.017
			c-0.508,0.24-1.072,0.361-1.689,0.361c-0.609,0-1.168-0.119-1.676-0.354s-0.941-0.57-1.303-1.003
			c-0.359-0.435-0.639-0.958-0.838-1.572c-0.197-0.615-0.297-1.3-0.297-2.057c0-0.757,0.102-1.443,0.305-2.056
			c0.201-0.614,0.486-1.142,0.852-1.58s0.801-0.777,1.309-1.018c0.508-0.241,1.066-0.36,1.676-0.36c0.619,0,1.182,0.117,1.689,0.353
			c0.51,0.235,0.941,0.57,1.303,1.004s0.641,0.958,0.838,1.572c0.199,0.614,0.299,1.299,0.299,2.056
			C257.201,5.743,257.1,6.429,256.896,7.043z M255.518,3.52c-0.135-0.44-0.32-0.816-0.561-1.127
			c-0.242-0.311-0.525-0.548-0.852-0.716c-0.328-0.167-0.686-0.25-1.074-0.25s-0.742,0.082-1.061,0.244
			c-0.316,0.162-0.594,0.396-0.824,0.703c-0.23,0.305-0.41,0.679-0.541,1.119c-0.129,0.44-0.191,0.938-0.191,1.495
			c0,0.556,0.064,1.055,0.201,1.495c0.133,0.44,0.316,0.816,0.553,1.127c0.236,0.311,0.516,0.547,0.844,0.716
			c0.33,0.167,0.688,0.251,1.074,0.251c0.389,0,0.742-0.082,1.059-0.244c0.32-0.162,0.598-0.396,0.834-0.703
			c0.234-0.305,0.416-0.678,0.547-1.119c0.127-0.44,0.193-0.938,0.193-1.495C255.719,4.458,255.65,3.959,255.518,3.52z"/>
		<path fill="#FFFFFF" d="M265.232,9.848l-3.863-6.08c-0.119-0.185-0.252-0.398-0.395-0.638c-0.145-0.24-0.252-0.425-0.326-0.553
			c0,0.091,0,0.235,0,0.429c0,0.193,0.004,0.401,0.008,0.623c0.006,0.221,0.008,0.443,0.008,0.665c0,0.213,0,0.389,0,0.526v5.028
			h-1.414V0.152h1.482l3.684,5.914c0.066,0.103,0.137,0.218,0.215,0.347c0.078,0.13,0.154,0.261,0.229,0.395
			c0.074,0.135,0.143,0.256,0.209,0.367c0.062,0.111,0.115,0.197,0.15,0.264c0-0.094,0-0.235,0-0.428
			c0-0.205-0.002-0.419-0.006-0.645c-0.004-0.227-0.008-0.451-0.008-0.672c0-0.222,0-0.402,0-0.541v-5h1.414v9.695H265.232z"/>
	</g>
</g>
</svg>
